<?xml version="1.0" encoding="iso-8859-1"?>
<!-- Uploaded to: SVG Repo, www.svgrepo.com, Generator: SVG Repo Mixer Tools -->
<svg fill="#000000" height="800px" width="800px" version="1.1" id="Capa_1" xmlns="http://www.w3.org/2000/svg" xmlns:xlink="http://www.w3.org/1999/xlink" 
	 viewBox="0 0 58 58" xml:space="preserve">
<g>
	<path d="M50,44.783c-2.589,0-5.04,0.925-7,2.624c-1.96-1.699-4.411-2.624-7-2.624s-5.04,0.925-7,2.624
		c-1.96-1.699-4.411-2.624-7-2.624s-5.04,0.925-7,2.624c-1.96-1.699-4.411-2.624-7-2.624c-2.916,0-5.657,1.174-7.719,3.305
		c-0.384,0.397-0.373,1.03,0.023,1.414c0.397,0.385,1.03,0.374,1.414-0.023C3.4,47.74,5.631,46.783,8,46.783s4.6,0.957,6.281,2.695
		L15,50.222l0.719-0.743C17.4,47.74,19.631,46.783,22,46.783s4.6,0.957,6.281,2.695L29,50.222l0.719-0.743
		C31.4,47.74,33.631,46.783,36,46.783s4.6,0.957,6.281,2.695L43,50.222l0.719-0.743C45.4,47.74,47.631,46.783,50,46.783
		s4.6,0.957,6.281,2.695c0.385,0.397,1.018,0.409,1.414,0.023c0.396-0.384,0.407-1.017,0.023-1.414
		C55.657,45.957,52.916,44.783,50,44.783z"/>
	<path d="M1.719,42.479C3.4,40.74,5.631,39.783,8,39.783s4.6,0.957,6.281,2.695L15,43.222l0.363-0.376l0.398-0.407
		c1.677-1.713,3.893-2.655,6.241-2.655c0.009,0,0.017,0,0.026,0c0.002,0,0.003,0,0.005,0c0.293,0.001,0.584,0.017,0.872,0.047
		c0.003,0,0.006,0.001,0.009,0.001c0.286,0.03,0.57,0.074,0.85,0.132c0.004,0.001,0.007,0.002,0.011,0.003
		c0.279,0.058,0.555,0.13,0.826,0.216c0.006,0.002,0.012,0.005,0.019,0.007c0.268,0.085,0.532,0.183,0.791,0.295
		c0.011,0.005,0.021,0.011,0.031,0.015c0.254,0.11,0.503,0.232,0.746,0.367c0.028,0.016,0.054,0.035,0.082,0.051
		c0.224,0.128,0.445,0.262,0.659,0.41c0.054,0.038,0.105,0.083,0.159,0.122c0.183,0.133,0.366,0.267,0.54,0.416
		c0.226,0.192,0.444,0.396,0.653,0.613L29,43.222l0.719-0.743C31.4,40.74,33.631,39.783,36,39.783s4.6,0.957,6.281,2.695L43,43.222
		l0.719-0.743c0.204-0.211,0.417-0.41,0.637-0.597c0.175-0.149,0.358-0.286,0.542-0.419c0.044-0.032,0.086-0.069,0.131-0.1
		c1.391-0.972,3.025-1.519,4.738-1.566l0.309-0.008c2.341,0.02,4.543,0.972,6.207,2.692c0.385,0.396,1.018,0.409,1.414,0.023
		c0.396-0.384,0.407-1.017,0.023-1.414c-1.673-1.73-3.798-2.816-6.097-3.168c1.592-2.32,2.775-4.856,3.51-7.57l0.587-2.252
		l-2.062,1.129c-0.243,0.134-0.486,0.268-0.735,0.393c-11.343,5.676-25.187,1.073-30.864-10.268
		c-2.531-5.056-3.111-10.848-1.632-16.306l0.615-2.268L18.98,1.907C7.14,8.394,2.603,22.936,8.649,35.011
		c0.542,1.081,1.179,2.098,1.863,3.08C9.697,37.894,8.858,37.783,8,37.783c-2.916,0-5.657,1.174-7.719,3.305
		c-0.384,0.397-0.373,1.03,0.023,1.414C0.702,42.887,1.335,42.875,1.719,42.479z M17.979,4.863
		c-0.892,5.224-0.103,10.605,2.289,15.384c5.95,11.884,20.151,16.965,32.217,11.78c-0.792,2.068-1.88,4.008-3.251,5.791
		c-0.571,0.041-1.133,0.13-1.683,0.26c-0.01,0.002-0.02,0.004-0.03,0.007c-0.261,0.062-0.518,0.135-0.772,0.216
		c-0.026,0.008-0.052,0.017-0.078,0.025c-0.241,0.08-0.48,0.167-0.715,0.264c-0.04,0.017-0.08,0.034-0.121,0.052
		c-0.222,0.094-0.441,0.194-0.656,0.304c-0.055,0.028-0.109,0.059-0.164,0.088c-0.2,0.106-0.398,0.215-0.591,0.334
		c-0.075,0.046-0.147,0.097-0.221,0.145c-0.171,0.112-0.344,0.222-0.509,0.344c-0.145,0.106-0.283,0.222-0.423,0.335
		c-0.09,0.073-0.184,0.139-0.272,0.216c-0.49-0.425-1.011-0.801-1.557-1.127c-0.003-0.002-0.005-0.003-0.008-0.004
		c-0.27-0.161-0.547-0.31-0.829-0.446c-1.424-0.686-2.989-1.047-4.607-1.047c-2.589,0-5.04,0.925-7,2.624
		c-0.244-0.211-0.495-0.411-0.754-0.598c-1.032-0.748-2.175-1.299-3.385-1.636c-0.001,0-0.003-0.001-0.004-0.001
		c-0.29-0.081-0.585-0.148-0.883-0.203c-0.013-0.002-0.026-0.006-0.039-0.009c-0.289-0.053-0.582-0.092-0.876-0.121
		c-0.022-0.002-0.044-0.007-0.067-0.009c-0.299-0.028-0.602-0.041-0.906-0.043c-0.017,0-0.034-0.002-0.051-0.002
		c-0.001,0-0.002,0-0.003,0c-0.011,0-0.022-0.001-0.033-0.001c-2.571,0-5.005,0.914-6.958,2.591
		c-1.883-1.812-3.43-3.914-4.604-6.258C5.222,23.7,8.565,11.291,17.979,4.863z"/>
	<path d="M50,51.783c-2.589,0-5.04,0.925-7,2.624c-1.96-1.699-4.411-2.624-7-2.624s-5.04,0.925-7,2.624
		c-1.96-1.699-4.411-2.624-7-2.624s-5.04,0.925-7,2.624c-1.96-1.699-4.411-2.624-7-2.624c-2.916,0-5.657,1.174-7.719,3.305
		c-0.384,0.397-0.373,1.03,0.023,1.414c0.397,0.385,1.03,0.373,1.414-0.023C3.4,54.74,5.631,53.783,8,53.783s4.6,0.957,6.281,2.695
		L15,57.222l0.719-0.743C17.4,54.74,19.631,53.783,22,53.783s4.6,0.957,6.281,2.695L29,57.222l0.719-0.743
		C31.4,54.74,33.631,53.783,36,53.783s4.6,0.957,6.281,2.695L43,57.222l0.719-0.743C45.4,54.74,47.631,53.783,50,53.783
		s4.6,0.957,6.281,2.695c0.385,0.396,1.018,0.409,1.414,0.023c0.396-0.384,0.407-1.017,0.023-1.414
		C55.657,52.957,52.916,51.783,50,51.783z"/>
</g>
</svg>